<svg width="1080" height="1080" xmlns="http://www.w3.org/2000/svg">
  <g stroke="#cb4b16" fill="#cb4b16">
    <path d="M201.937 251.448c0 41.46 15.138 81.536 42.136 112.792l18.044-18.956v-.034c26.525-27.877 55.213-58.018 81.908-86.976a173.783 173.783 0 0 0-109.65-39.264h-20.95c-6.42 0-11.488 5.068-11.488 11.488v20.95zM835.605 364.24a172.77 172.77 0 0 0 42.136-112.792v-20.95c0-6.42-5.068-11.488-11.488-11.488h-20.95a173.783 173.783 0 0 0-109.65 39.264c26.695 28.958 55.349 59.065 81.84 86.908v.034l.034.034.068.034 18.01 18.956zM590.592 850.211c-20.274 0-38.183-8.785-50.685-22.977-12.503 14.192-30.412 22.977-50.686 22.977-37.169 0-67.58-30.411-67.58-67.58 0-9.462 7.434-16.895 16.895-16.895s16.895 7.433 16.895 16.895c0 18.584 15.206 33.79 33.79 33.79s33.79-15.206 33.79-33.79c0-9.462 7.434-16.895 16.896-16.895s16.895 7.433 16.895 16.895c0 18.584 15.205 33.79 33.79 33.79s33.79-15.206 33.79-33.79c0-9.462 7.434-16.895 16.895-16.895s16.895 7.433 16.895 16.895c0 37.169-30.41 67.58-67.58 67.58z"/>
    <path d="M179.703 117.639a79.07 79.07 0 0 0-79.07 79.07v41.561c0 56.531 18.484 111.17 51.869 155.942L64.613 499.063l-.101.101a136.04 136.04 0 0 0-19.7 142.528C129.457 830.41 319.324 962.36 539.907 962.36c220.65 0 410.483-131.917 495.128-321.007l.067-.135a135.16 135.16 0 0 0-19.936-142.595l-.101-.135-87.652-104.412A260.996 260.996 0 0 0 979.18 238.27v-41.562a79.07 79.07 0 0 0-79.07-79.069h-41.562c-57.004 0-112.183 18.821-157.158 52.983a358.447 358.447 0 0 0-161.483-38.115c-57.984 0-112.792 13.685-161.349 37.98a260.996 260.996 0 0 0-157.293-52.848h-41.562zm-11.489 79.07a11.489 11.489 0 0 1 11.489-11.49h41.562c48.32 0 94.95 18.247 130.498 50.787l18.381 16.861 21.525-12.637a291.745 291.745 0 0 1 148.238-40.143c54.3 0 104.918 14.665 148.305 40.278l21.626 12.773 18.45-16.997a192.47 192.47 0 0 1 130.227-50.922h41.562a11.489 11.489 0 0 1 11.488 11.49v41.561c0 49.334-19.024 96.877-52.814 132.66l-20.68 21.897 125.362 149.319.136.202a67.58 67.58 0 0 1 9.731 71.433 474.11 474.11 0 0 1-37.406 67.986 231.53 231.53 0 0 0-53.388-108.636L794.11 472.538l-.034-.068a146.413 146.413 0 0 0-110.73-50.719h-3.042c-70.419 1.352-128.808 53.727-140.466 121.206-11.624-67.48-69.878-119.82-140.196-121.206h-3.04a145.974 145.974 0 0 0-110.529 50.753l-88.226 100.695a231.598 231.598 0 0 0-53.456 109.514 473.536 473.536 0 0 1-37.913-68.662 68.459 68.459 0 0 1 9.968-71.635l.034-.068L241.775 392.86l-20.645-21.862a193.55 193.55 0 0 1-52.916-132.728v-41.562zm688.915 398.724a196.625 196.625 0 0 1 49.131 126.41 477.63 477.63 0 0 1-43.184 45.852A160.673 160.673 0 0 0 829.151 620.1l-87.855-101.033a72.649 72.649 0 0 0-57.105-26.019c-39.535.676-70.96 34.129-70.96 74.001v55.213a144.487 144.487 0 0 0-18.246-1.149H571.5v-54.03c.338-60.417 49.334-110.291 109.346-111.542h2.534c32.912 0 63.796 14.361 85.219 39.096l88.53 100.796zm-348.985 25.68H484.49c-5.812 0-11.557.338-17.233 1.014V567.05c0-39.872-31.425-73.325-70.96-74a72.649 72.649 0 0 0-57.105 26.018L251.338 620.1a160.673 160.673 0 0 0-33.621 148.542 477.895 477.895 0 0 1-43.488-45.82 196.93 196.93 0 0 1 49.063-127.39l88.226-100.694.068-.068a112.217 112.217 0 0 1 85.05-39.129h2.534c59.809 1.25 108.67 51.091 108.974 111.542v54.03zm136.005 262.213a477.017 477.017 0 0 1-208.485 0 146.886 146.886 0 0 1-60.654-118.942 109.514 109.514 0 0 1 93.6-108.331c-5.88 11.826-4.9 27.032 6.081 38.047l42.238 42.576c12.84 12.84 33.453 12.84 45.955 0l42.238-42.576a32.574 32.574 0 0 0 6.15-37.98 109.548 109.548 0 0 1 93.193 108.264 146.988 146.988 0 0 1-60.316 118.942zm33.047-245.317c-13.854 0-25.342-11.49-25.342-25.343V561.98c0-13.854 11.488-25.343 25.342-25.343s25.343 11.489 25.343 25.343v50.685c0 14.192-11.489 25.343-25.343 25.343zm-297.793-29.06v-50.685c0-13.854 11.489-25.343 25.343-25.343s25.342 11.489 25.342 25.343v50.685a25.309 25.309 0 1 1-50.685 0z"/>
  </g>
</svg>
